<svg xmlns="http://www.w3.org/2000/svg" viewBox="0 0 383.49 73.58"><defs><style>.cls-1{fill:#ff1f30;}.cls-2{fill:#fff;}</style></defs><g id="Layer_2" data-name="Layer 2"><g id="Layer_1-2" data-name="Layer 1"><path class="cls-1" d="M36.79,56.74,24.94,44.89,13.68,56.15,27.1,69.57a13.72,13.72,0,0,0,19.38,0l13.2-13.2L48.42,45.1ZM69.57,27.1,46.48,4A13.72,13.72,0,0,0,27.1,4L4,27.1A13.72,13.72,0,0,0,4,46.48L5.49,48l31.3-31.12L67.87,48.18l1.7-1.7A13.72,13.72,0,0,0,69.57,27.1Z"/><path class="cls-2" d="M97.69,58.46V30.25H90.48V21.36h7.21V17.58a10.06,10.06,0,0,1,3-7.74c2-1.84,4.82-2.76,8.51-2.76h7.07V16h-5.67a2.74,2.74,0,0,0-2,.66,2.64,2.64,0,0,0-.66,1.93v2.8h9.87v8.89h-9.87V58.46Z"/><path class="cls-2" d="M134.44,59.51a14.6,14.6,0,0,1-7.18-1.65,11,11,0,0,1-4.55-4.72,16,16,0,0,1-1.57-7.35V21.36h10.15V43.48a7.25,7.25,0,0,0,1.57,5.07,6.18,6.18,0,0,0,4.8,1.72,6.81,6.81,0,0,0,3.43-.84,5.54,5.54,0,0,0,2.24-2.38,8,8,0,0,0,.77-3.57V21.36h10.22v37.1h-9.73V55.17h-.14a11.58,11.58,0,0,1-4.27,3.15A14,14,0,0,1,134.44,59.51Z"/><path class="cls-2" d="M161.25,58.46V21.36H171v3.29h.14a10.65,10.65,0,0,1,4.27-3.15,14.41,14.41,0,0,1,5.81-1.19,14,14,0,0,1,7.14,1.78,12.53,12.53,0,0,1,4.83,5.08,16.09,16.09,0,0,1,1.75,7.63V58.46H184.7v-22a6.86,6.86,0,0,0-1.75-5,6.62,6.62,0,0,0-4.9-1.75,7.41,7.41,0,0,0-3.57.8,5.75,5.75,0,0,0-2.31,2.35,7.5,7.5,0,0,0-.84,3.64v22Z"/><path class="cls-2" d="M208,56.92a16.94,16.94,0,0,1-5.91-7,22.94,22.94,0,0,1-2.14-10,23.18,23.18,0,0,1,2.14-10.08,16.9,16.9,0,0,1,5.91-7,15.05,15.05,0,0,1,8.54-2.52,15.63,15.63,0,0,1,5.25.84A12.59,12.59,0,0,1,226,23.6h.14V7.36h10.08v51.1h-9.38V55.1h-.14a10.65,10.65,0,0,1-4.27,3.15,14.61,14.61,0,0,1-5.88,1.19A15.05,15.05,0,0,1,208,56.92Zm14.42-7.7a6.87,6.87,0,0,0,2.73-2.77,8,8,0,0,0,1-4V37.25a7.81,7.81,0,0,0-1-4,7.24,7.24,0,0,0-2.76-2.73,7.93,7.93,0,0,0-4-1,8.06,8.06,0,0,0-4.51,1.22,7.75,7.75,0,0,0-2.84,3.57,14.48,14.48,0,0,0-1,5.57,14.2,14.2,0,0,0,1,5.53A7.69,7.69,0,0,0,213.92,49a8.11,8.11,0,0,0,4.58,1.23A7.89,7.89,0,0,0,222.42,49.22Z"/><path class="cls-2" d="M243.21,58.46V21.36h9.59v3.36h.14a7.48,7.48,0,0,1,3.19-3,10.25,10.25,0,0,1,4.72-1.05,17.23,17.23,0,0,1,4.83.63l-1.75,9.59c-.65-.14-1.33-.27-2-.39a12.67,12.67,0,0,0-2-.17,6,6,0,0,0-5,2.1q-1.68,2.1-1.68,6.23V58.46Z"/><path class="cls-2" d="M283.18,59.58a23.42,23.42,0,0,1-8.75-1.51,14.1,14.1,0,0,1-6.05-4.41,16.52,16.52,0,0,1-3.12-7.1l9-2.45a9.64,9.64,0,0,0,3,5.46,9.32,9.32,0,0,0,5.95,1.68,8.9,8.9,0,0,0,2.56-.35,3.56,3.56,0,0,0,1.75-1,2.48,2.48,0,0,0-.11-3.33A8,8,0,0,0,284.83,45c-1.24-.53-3.12-1.2-5.64-2a29.58,29.58,0,0,1-6.89-2.91,11.09,11.09,0,0,1-3.92-3.71,9.44,9.44,0,0,1-1.23-4.93A9.28,9.28,0,0,1,269,25.8a13.12,13.12,0,0,1,5.18-4.06,17.37,17.37,0,0,1,7.28-1.5,18.44,18.44,0,0,1,7.14,1.4,16.12,16.12,0,0,1,5.71,3.92,13.27,13.27,0,0,1,3.18,5.67l-9,2.59a7.45,7.45,0,0,0-2.69-3.92,7.31,7.31,0,0,0-4.38-1.33,6.76,6.76,0,0,0-2.27.35,2.91,2.91,0,0,0-1.51,1,2.54,2.54,0,0,0-.49,1.47,1.6,1.6,0,0,0,.49,1.22,7.34,7.34,0,0,0,2,1.09q1.47.63,5,1.82a36.82,36.82,0,0,1,7.67,3.29,13.7,13.7,0,0,1,4.41,4,10,10,0,0,1-.46,11.2,12.88,12.88,0,0,1-5.42,4.06A19.46,19.46,0,0,1,283.18,59.58Z"/><path class="cls-2" d="M305.86,58.46V50.34h8.33v8.12Z"/><path class="cls-2" d="M328.54,58.46l-15.68-37.1h5.88L330.85,51H331L343.1,21.36H349L333.3,58.46Z"/><path class="cls-2" d="M367.32,59.51a16.6,16.6,0,0,1-9-2.45,16.42,16.42,0,0,1-6.09-6.93,23.25,23.25,0,0,1-2.17-10.22,23.22,23.22,0,0,1,2.17-10.22,16.36,16.36,0,0,1,6.09-6.93,16.6,16.6,0,0,1,9-2.45A17.76,17.76,0,0,1,375,22a14.31,14.31,0,0,1,5.63,4.69,17,17,0,0,1,2.87,7.18l-5.32,1.12a11.51,11.51,0,0,0-3.64-7,11.36,11.36,0,0,0-13.3-.7,11.92,11.92,0,0,0-4.13,5.11,18.34,18.34,0,0,0-1.47,7.56,18.34,18.34,0,0,0,1.47,7.56,11.92,11.92,0,0,0,4.13,5.11,11.36,11.36,0,0,0,13.3-.7,11.51,11.51,0,0,0,3.64-7L383.49,46a17,17,0,0,1-2.87,7.17A14.23,14.23,0,0,1,375,57.86,17.62,17.62,0,0,1,367.32,59.51Z"/></g></g></svg>