<svg width="368" height="226" viewBox="0 0 368 226" fill="none" xmlns="http://www.w3.org/2000/svg">
<path d="M29.7897 103.424H27.1993V100.907H26.1632V103.424H23.5728V104.43H26.1632V106.947H27.1993V104.43H29.7897V103.424Z" fill="#7E8299"/>
<path d="M352.295 2.51638H349.704V-1.52588e-05H348.668V2.51638H346.078V3.52294H348.668V6.03934H349.704V3.52294H352.295V2.51638Z" fill="#7E8299"/>
<path d="M37.3019 95.6229C35.3073 95.6229 33.6753 94.0376 33.6753 92.1C33.6753 90.1623 35.3073 88.577 37.3019 88.577C39.2965 88.577 40.9284 90.1623 40.9284 92.1C40.9284 94.0376 39.2965 95.6229 37.3019 95.6229ZM37.3019 89.5836C35.8771 89.5836 34.7115 90.7159 34.7115 92.1C34.7115 93.484 35.8771 94.6163 37.3019 94.6163C38.7266 94.6163 39.8923 93.484 39.8923 92.1C39.8923 90.7159 38.7266 89.5836 37.3019 89.5836Z" fill="#7E8299"/>
<path d="M349.186 163.817C347.192 163.817 345.56 162.232 345.56 160.294C345.56 158.357 347.192 156.771 349.186 156.771C351.181 156.771 352.813 158.357 352.813 160.294C352.813 162.232 351.181 163.817 349.186 163.817ZM349.186 157.778C347.761 157.778 346.596 158.91 346.596 160.294C346.596 161.678 347.761 162.811 349.186 162.811C350.611 162.811 351.777 161.678 351.777 160.294C351.777 158.91 350.611 157.778 349.186 157.778Z" fill="#7E8299"/>
<path d="M167.858 60.8966C165.863 60.8966 164.231 59.3113 164.231 57.3737C164.231 55.4361 165.863 53.8508 167.858 53.8508C169.853 53.8508 171.485 55.4361 171.485 57.3737C171.485 59.3113 169.853 60.8966 167.858 60.8966ZM167.858 54.8573C166.433 54.8573 165.268 55.9897 165.268 57.3737C165.268 58.7577 166.433 59.8901 167.858 59.8901C169.283 59.8901 170.448 58.7577 170.448 57.3737C170.448 55.9897 169.283 54.8573 167.858 54.8573Z" fill="#7E8299"/>
<path d="M367.552 141.874C366.464 141.874 362.346 141.547 361.387 136.917C360.455 132.513 356.258 133.268 356.077 133.319L355.87 132.337C355.921 132.337 361.258 131.331 362.397 136.716C363.33 141.195 367.552 140.868 367.734 140.868L367.837 141.874C367.811 141.874 367.708 141.874 367.552 141.874Z" fill="#7E8299"/>
<path d="M71.0544 27.9068C71.0544 27.7307 70.8213 23.6038 66.2104 23.7296C66.1067 23.7296 66.029 23.7296 65.9254 23.7296C60.5892 23.7296 59.7603 18.8227 59.7603 18.7723L60.7964 18.6213C60.8223 18.7975 61.5217 22.8489 66.1845 22.6979C71.8574 22.5217 72.0906 27.781 72.0906 27.8314L71.0544 27.9068Z" fill="#7E8299"/>
<path d="M204.124 12.8336H325.614C331.753 12.8336 336.753 17.6903 336.753 23.6541V135.382C336.753 141.346 331.753 146.202 325.614 146.202H204.124C197.985 146.202 192.985 141.346 192.985 135.382V23.6541C192.985 17.6903 197.985 12.8336 204.124 12.8336Z" fill="white"/>
<path d="M325.615 146.706H204.125C197.7 146.706 192.468 141.623 192.468 135.382V23.6541C192.468 17.4134 197.7 12.3303 204.125 12.3303H325.615C332.039 12.3303 337.271 17.4134 337.271 23.6541V135.382C337.271 141.623 332.039 146.706 325.615 146.706ZM204.125 13.3369C198.27 13.3369 193.504 17.967 193.504 23.6541V135.382C193.504 141.069 198.27 145.699 204.125 145.699H325.615C331.469 145.699 336.235 141.069 336.235 135.382V23.6541C336.235 17.967 331.469 13.3369 325.615 13.3369H204.125Z" fill="#E4E6EF"/>
<path d="M310.382 72.749C305.564 74.284 301.575 72.7741 300.072 72.0444C296.679 70.3836 292.482 68.3201 284.089 75.8945C277.38 81.959 273.857 82.1603 270.36 80.4994C266.112 78.5115 258.185 74.7873 250.932 82.6133C243.472 90.6657 238.239 90.3134 228.784 89.6843L228.059 89.634C218.526 89.0049 203.683 105.714 203.683 105.714C204.253 104.984 217.904 87.6209 228.162 88.3003L228.888 88.3507C238.213 88.9798 242.902 89.2817 249.922 81.7073C257.848 73.1516 266.708 77.3037 270.982 79.2916C273.52 80.4743 276.37 81.0531 283.183 74.8879C291.576 67.3136 296.264 68.6472 300.72 70.8113C302.818 71.843 310.745 74.0826 317.842 66.2818L325.562 59.0346L318.801 66.8355C315.899 70.1571 313.024 71.9186 310.382 72.749Z" fill="#00E08A"/>
<path d="M217.879 65.5269L216.584 64.4197C217.594 63.3125 241.167 37.595 252.824 37.2678C253.186 37.2678 253.679 37.444 253.989 37.9472C254.482 38.8028 254.611 40.7153 250.156 47.585C249.845 48.189 245.182 56.9712 244.353 60.1418C244.25 60.5696 244.405 60.947 244.483 60.9974C244.56 61.0477 245.182 60.9471 246.322 59.7141C246.451 59.5882 259.093 46.3268 262.875 46.3268C263.6 46.3268 264.247 46.6288 264.714 47.1572C266.372 49.0697 265.62 54.0522 265.465 54.9329C265.491 55.2097 265.594 55.5368 265.672 55.5871C265.672 55.5871 265.905 55.6123 266.527 55.1845C266.89 54.9329 267.356 54.6057 267.9 54.2031C272.666 50.7556 277.122 47.7109 279.375 48.34C282.303 49.1452 281.862 53.6999 281.733 54.5554C281.733 54.6309 281.784 54.8071 281.914 54.9077C281.992 54.958 282.354 55.1091 283.339 54.7568C284.504 54.329 285.333 53.574 286.085 52.8946C287.017 52.039 287.976 51.1835 289.297 51.3596C290.229 51.4855 291.032 51.9635 291.576 52.6933C292.612 54.0773 292.69 56.1911 292.431 57.7009C292.327 58.3049 292.457 58.6823 292.535 58.7326C292.535 58.7326 293.441 58.7326 296.783 55.0335C303 48.1638 325.044 37.2929 327.401 36.9155C327.401 36.9155 304.036 49.8498 298.13 56.0653C295.073 59.2863 293.286 60.8967 291.835 60.2676C290.929 59.865 290.488 58.783 290.721 57.4241C290.929 56.2162 290.851 54.5806 290.177 53.6747C289.892 53.2972 289.53 53.0707 289.038 53.0204C288.545 52.9449 288.053 53.3979 287.25 54.1277C286.421 54.8826 285.411 55.8136 283.934 56.342C282.665 56.795 281.655 56.795 280.93 56.2917C280.023 55.6878 279.997 54.6561 279.997 54.5303V54.4044C280.178 53.0959 280.153 50.3027 278.883 49.9504C277.251 49.4975 271.19 53.9012 268.91 55.5368C268.366 55.9394 267.874 56.2917 267.511 56.5434C266.475 57.248 265.594 57.4241 264.869 57.0718C263.755 56.5182 263.729 55.0335 263.729 54.8574V54.7064C264.066 52.7436 264.299 49.271 263.367 48.2141C263.211 48.038 263.056 47.9625 262.849 47.9625C260.491 47.9625 249.819 58.33 247.591 60.7961C245.7 62.8596 244.405 62.8344 243.654 62.4569C242.669 61.9536 242.384 60.6954 242.643 59.6889C243.524 56.2414 248.394 47.1321 248.601 46.7294L248.627 46.6791C252.073 41.3695 252.435 39.4822 252.461 38.9035C241.452 39.8094 218.112 65.2501 217.879 65.5269Z" fill="#00E08A"/>
<path d="M276.655 105.135C276.655 105.135 275.464 106.846 277.251 108.004C277.251 108.004 287.432 100.983 300.746 106.142C300.746 106.142 310.201 110.092 311.393 115.905C311.911 118.447 311.989 121.919 307.844 125.669C307.844 125.669 299.865 132.262 286.577 131.985C286.577 131.985 277.588 132.186 268.263 128.261C266.216 127.405 260.88 124.813 260.595 120.233C260.362 116.635 261.191 111.35 267.978 106.745C272.019 104.028 276.241 101.864 286.007 102.166C286.007 102.166 288.364 100.454 283.934 99.0201C283.934 99.0201 278.028 97.8626 267.978 104.179C267.978 104.179 258.833 109.639 258.833 117.943C258.833 120.258 258.834 128.563 271.837 132.01C271.837 132.01 287.198 136.59 300.487 132.287C300.487 132.287 315.252 127.128 314.372 117.641C314.372 117.641 314.087 108.18 301.679 104.154C301.601 104.128 288.623 98.1142 276.655 105.135Z" fill="#00E08A"/>
<path d="M276.163 113.691C276.163 113.691 278.442 113.514 278.805 114.974L278.986 123.781C278.986 123.781 287.871 113.313 299.01 108.909L299.761 109.815C299.761 109.815 286.55 118.447 278.986 127.053C278.986 127.053 277.846 126.675 276.914 125.769C276.914 125.82 276.914 115.351 276.163 113.691Z" fill="#00E08A"/>
<path d="M46.0579 224.11C46.0579 224.11 44.3482 216.586 48.6483 209.263C48.6483 209.263 51.0056 202.142 47.1459 195.675C43.2602 189.182 47.1459 181.86 51.6791 180.828C56.2123 179.771 61.5744 183.344 62.8696 188.352C64.1648 193.36 63.0768 196.933 70.8481 200.682C78.5934 204.457 78.2825 224.11 78.2825 224.11H46.0579Z" fill="#FAFBFD"/>
<path d="M78.748 224.613H45.6427L45.5649 224.211C45.4872 223.909 43.8553 216.435 48.1813 209.062C48.3626 208.458 50.2536 201.865 46.7047 195.926C44.7619 192.68 44.5029 188.881 46.0053 185.483C47.171 182.841 49.2951 180.853 51.5488 180.35C56.3928 179.243 62.014 182.992 63.361 188.251C63.6201 189.233 63.7755 190.164 63.9309 191.045C64.5785 194.693 65.0448 197.336 71.0545 200.255C79.0071 204.105 78.7739 223.33 78.7739 224.135L78.748 224.613ZM46.4716 223.607H77.7119C77.686 220.562 77.2715 204.381 70.5624 201.135C64.0863 197.99 63.5164 194.844 62.8948 191.196C62.7393 190.315 62.5839 189.434 62.3249 188.478C61.1074 183.722 56.0561 180.325 51.756 181.306C49.8132 181.759 47.974 183.495 46.912 185.861C45.539 188.956 45.7722 192.429 47.5596 195.398C51.497 201.991 49.2174 209.112 49.1138 209.389L49.062 209.49C45.4613 215.63 46.2125 221.971 46.4716 223.607Z" fill="black"/>
<path d="M62.3771 224.412C55.9529 210.798 51.1866 180.979 51.1348 180.677L52.1709 180.526C52.2227 180.828 56.9632 210.521 63.3356 224.009L62.3771 224.412Z" fill="black"/>
<path d="M29.0116 200.556C30.8714 200.556 32.3791 199.092 32.3791 197.285C32.3791 195.478 30.8714 194.014 29.0116 194.014C27.1517 194.014 25.644 195.478 25.644 197.285C25.644 199.092 27.1517 200.556 29.0116 200.556Z" fill="black"/>
<path d="M46.0306 224.487C35.3323 220.663 29.3225 204.91 29.0635 204.256L30.281 203.828C30.3328 203.979 36.3425 219.706 46.471 223.33L46.0306 224.487Z" fill="black"/>
<path d="M60.1189 184.058L54.6128 198.392L55.5836 198.744L61.0897 184.41L60.1189 184.058Z" fill="black"/>
<path d="M62.9803 190.92L56.6177 206.553L57.5813 206.923L63.944 191.29L62.9803 190.92Z" fill="black"/>
<path d="M23.7798 198.166C23.7798 198.166 29.0124 195.524 34.1932 197.109C34.1932 197.109 35.6179 204.507 30.3076 205.061C24.2979 205.69 23.7798 198.166 23.7798 198.166Z" fill="#F4B840"/>
<path d="M15.5943 197.939C17.2824 197.939 18.6509 196.61 18.6509 194.97C18.6509 193.33 17.2824 192.001 15.5943 192.001C13.9061 192.001 12.5376 193.33 12.5376 194.97C12.5376 196.61 13.9061 197.939 15.5943 197.939Z" fill="black"/>
<path d="M39.8147 219.706C39.8147 219.706 36.8098 215.529 37.2243 212.182C37.6647 208.835 39.8147 207.778 40.6695 208.005C41.5244 208.206 43.0268 208.634 42.3792 211.78C41.7316 214.9 39.8147 219.706 39.8147 219.706Z" fill="black"/>
<path d="M47.2706 212.373L46.6572 213.184L62.6274 224.581L63.2408 223.769L47.2706 212.373Z" fill="black"/>
<path d="M46.1766 217.074L45.5723 217.892L54.999 224.466L55.6033 223.649L46.1766 217.074Z" fill="black"/>
<path d="M91.1562 192.202C91.1562 192.202 89.0062 187.798 91.1562 182.162C93.3063 176.525 94.8087 158.935 81.9085 159.791C69.0083 160.646 68.1275 177.355 69.4227 185.936C70.7179 194.517 68.7751 200.355 66.6251 205.187C64.475 209.993 57.5846 213.541 58.6466 224.211H102.347C102.347 224.211 104.497 207.275 91.1562 192.202Z" fill="#FAFBFD"/>
<path d="M102.812 224.714H58.1798L58.128 224.261C57.3509 216.561 60.6925 212.383 63.3865 209.037C64.5004 207.653 65.5366 206.344 66.1583 204.985C68.3342 200.103 70.1993 194.442 68.93 186.012C67.9197 179.217 68.3601 169.303 73.0487 163.691C75.2765 161.024 78.2555 159.539 81.9079 159.288C85.5604 159.061 88.4098 160.219 90.3526 162.735C94.4714 168.095 93.228 178.312 91.6996 182.338C89.7828 187.396 91.4147 191.422 91.6478 191.925C98.5901 199.776 101.284 208.131 102.32 213.767C103.46 219.882 102.942 224.085 102.916 224.261L102.812 224.714ZM59.1124 223.707H101.88C102.087 220.964 102.605 205.916 90.7671 192.529L90.7153 192.479L90.6894 192.428C90.5858 192.252 88.4616 187.773 90.6635 182.011C92.14 178.161 93.3316 168.397 89.4719 163.339C87.7622 161.099 85.2236 160.093 81.9338 160.294C78.5922 160.521 75.8464 161.854 73.8259 164.32C69.3704 169.68 68.93 179.268 69.9403 185.861C71.2614 194.542 69.2408 200.607 67.1167 205.388C66.4432 206.873 65.3811 208.231 64.2155 209.666C61.5473 212.962 58.5425 216.686 59.1124 223.707Z" fill="black"/>
<path d="M19.4023 206.218C19.4023 206.218 12.6931 206.747 11.6052 205.187C10.5431 203.626 13.4443 202.243 17.2781 204.608C17.8221 204.935 19.4023 206.218 19.4023 206.218Z" fill="black"/>
<path d="M21.5001 209.54C21.5001 209.54 15.05 211.402 13.6512 210.094C12.2782 208.785 14.8168 206.848 19.0651 208.383C19.6868 208.584 21.5001 209.54 21.5001 209.54Z" fill="black"/>
<path d="M36.0057 225.116C23.779 215.932 15.6451 201.966 15.5674 201.84L16.7072 201.236C16.7849 201.362 24.7892 215.126 36.8087 224.135L36.0057 225.116Z" fill="black"/>
<path d="M81.2866 224.186C76.9347 201.438 77.1678 185.082 78.1263 175.368C79.1624 164.799 81.2347 159.716 81.3125 159.49L82.2709 159.867C82.245 159.918 80.1727 165.076 79.1624 175.544C78.204 185.182 77.9967 201.413 82.3227 224.01L81.2866 224.186Z" fill="black"/>
<path d="M70.8729 169.134L70.0918 169.796L78.0068 178.616L78.7879 177.955L70.8729 169.134Z" fill="black"/>
<path d="M10.8276 195.775C10.8276 195.775 15.2831 193.259 20.3085 194.819C20.3085 194.819 21.6037 201.538 16.7856 202.041C11.2939 202.62 10.8276 195.775 10.8276 195.775Z" fill="#F4B840"/>
<path d="M69.6061 175.053L68.8276 175.718L77.6667 185.492L78.4451 184.828L69.6061 175.053Z" fill="black"/>
<path d="M92.3804 193.891L79.1636 210.173L79.9772 210.796L93.194 194.515L92.3804 193.891Z" fill="black"/>
<path d="M95.1536 197.677L80.0337 215.864L80.8398 216.497L95.9598 198.309L95.1536 197.677Z" fill="black"/>
<path d="M328.904 224.11C328.904 224.11 330.614 216.586 326.314 209.263C326.314 209.263 323.956 202.142 327.816 195.675C331.702 189.183 327.816 181.86 323.283 180.828C318.75 179.771 313.388 183.344 312.092 188.352C310.797 193.36 311.885 196.933 304.114 200.682C296.343 204.432 296.679 224.11 296.679 224.11H328.904Z" fill="#FAFBFD"/>
<path d="M329.318 224.613H296.213V224.11C296.187 223.305 295.98 204.08 303.932 200.229C309.942 197.31 310.408 194.668 311.056 191.019C311.211 190.139 311.367 189.208 311.626 188.226C312.973 182.967 318.62 179.218 323.438 180.325C325.692 180.853 327.816 182.816 328.982 185.458C330.484 188.855 330.225 192.655 328.282 195.901C324.733 201.84 326.624 208.433 326.806 209.037C331.132 216.435 329.5 223.884 329.422 224.185L329.318 224.613ZM297.223 223.607H328.463C328.722 221.996 329.474 215.63 325.873 209.515L325.821 209.414C325.718 209.112 323.438 202.016 327.375 195.423C329.163 192.454 329.396 188.981 328.023 185.886C326.987 183.521 325.122 181.784 323.179 181.331C318.879 180.325 313.828 183.747 312.61 188.503C312.377 189.459 312.196 190.365 312.04 191.221C311.393 194.869 310.849 198.015 304.373 201.16C297.664 204.381 297.249 220.562 297.223 223.607Z" fill="black"/>
<path d="M312.584 224.412L311.652 223.984C317.998 210.496 322.765 180.803 322.816 180.501L323.853 180.652C323.749 180.979 318.983 210.823 312.584 224.412Z" fill="black"/>
<path d="M345.923 200.557C347.783 200.557 349.291 199.092 349.291 197.285C349.291 195.479 347.783 194.014 345.923 194.014C344.063 194.014 342.556 195.479 342.556 197.285C342.556 199.092 344.063 200.557 345.923 200.557Z" fill="black"/>
<path d="M328.903 224.487L328.463 223.305C338.617 219.681 344.601 203.979 344.653 203.803L345.87 204.23C345.611 204.91 339.602 220.663 328.903 224.487Z" fill="black"/>
<path d="M314.813 183.965L313.842 184.317L319.346 198.651L320.317 198.3L314.813 183.965Z" fill="black"/>
<path d="M312.045 190.934L311.081 191.305L317.447 206.936L318.411 206.565L312.045 190.934Z" fill="black"/>
<path d="M351.155 198.166C351.155 198.166 345.922 195.524 340.742 197.109C340.742 197.109 339.317 204.507 344.627 205.061C350.637 205.69 351.155 198.166 351.155 198.166Z" fill="#F4B840"/>
<path d="M335.146 219.706C335.146 219.706 338.151 215.529 337.737 212.182C337.296 208.836 335.146 207.779 334.292 208.005C333.437 208.206 331.934 208.634 332.582 211.78C333.204 214.9 335.146 219.706 335.146 219.706Z" fill="black"/>
<path d="M327.647 212.433L311.674 223.828L312.288 224.639L328.26 213.245L327.647 212.433Z" fill="black"/>
<path d="M283.779 192.202C283.779 192.202 285.929 187.798 283.779 182.162C281.629 176.525 280.127 158.935 293.027 159.791C305.927 160.647 306.808 177.355 305.513 185.936C304.218 194.517 306.16 200.355 308.31 205.187C310.46 209.993 317.351 213.541 316.289 224.211H272.589C272.589 224.211 270.439 207.275 283.779 192.202Z" fill="#FAFBFD"/>
<path d="M316.781 224.714H272.148L272.096 224.261C272.07 224.085 271.552 219.882 272.692 213.768C273.728 208.131 276.422 199.776 283.365 191.95C283.598 191.422 285.23 187.396 283.313 182.363C281.784 178.337 280.541 168.095 284.66 162.76C286.603 160.244 289.426 159.086 293.104 159.313C296.757 159.539 299.736 161.024 301.964 163.717C306.626 169.328 307.093 179.243 306.082 186.037C304.813 194.442 306.652 200.129 308.854 205.011C309.476 206.369 310.512 207.678 311.626 209.062C314.32 212.409 317.661 216.586 316.884 224.286L316.781 224.714ZM273.081 223.707H315.848C316.418 216.687 313.413 212.962 310.771 209.641C309.631 208.206 308.543 206.848 307.87 205.363C305.746 200.582 303.725 194.542 305.046 185.836C306.031 179.243 305.616 169.655 301.161 164.295C299.114 161.854 296.394 160.496 293.053 160.269C289.763 160.068 287.224 161.074 285.515 163.314C281.629 168.372 282.846 178.11 284.323 181.986C286.525 187.773 284.401 192.227 284.297 192.403L284.271 192.454L284.219 192.504C272.329 205.916 272.847 220.964 273.081 223.707Z" fill="black"/>
<path d="M293.674 224.186L292.664 224.01C296.99 201.413 296.757 185.182 295.824 175.544C294.788 165.101 292.716 159.918 292.716 159.867L293.674 159.49C293.752 159.691 295.824 164.799 296.86 175.368C297.793 185.107 298.026 201.463 293.674 224.186Z" fill="black"/>
<path d="M304.077 169.151L296.162 177.972L296.943 178.633L304.858 169.813L304.077 169.151Z" fill="black"/>
<path d="M305.367 175.009L296.526 184.782L297.305 185.446L306.145 175.673L305.367 175.009Z" fill="black"/>
<path d="M282.5 193.863L281.686 194.486L294.905 210.765L295.719 210.142L282.5 193.863Z" fill="black"/>
<path d="M279.836 197.74L279.03 198.372L294.147 216.562L294.954 215.93L279.836 197.74Z" fill="black"/>
<path d="M79.7592 209.993L76.3917 219.404L67.2217 217.542L69.6567 209.993H79.7592Z" fill="#FAFBFD"/>
<path d="M76.7281 219.983L66.5737 217.92L69.2937 209.49H80.5101L76.7281 219.983ZM67.8948 217.165L76.0546 218.826L79.0336 210.496H70.0449L67.8948 217.165Z" fill="black"/>
<path d="M67.0662 216.334C67.0662 216.334 72.5579 220.386 77.1688 216.334L90.8461 223.254C91.4419 223.556 91.2347 224.437 90.5353 224.437H66.3668C65.6156 224.437 65.0457 223.732 65.2529 223.028L67.0662 216.334Z" fill="black"/>
<path d="M128.716 209.993L128.975 219.404L119.287 219.304L118.614 209.993H128.716Z" fill="#FAFBFD"/>
<path d="M129.494 219.908L118.796 219.807L118.044 209.49H129.209L129.494 219.908ZM119.78 218.8L128.432 218.901L128.199 210.496H119.158L119.78 218.8Z" fill="black"/>
<path d="M119.133 216.334C119.133 216.334 124.624 220.386 129.235 216.334L142.913 223.254C143.508 223.556 143.301 224.437 142.602 224.437H118.433C117.682 224.437 117.112 223.732 117.319 223.028L119.133 216.334Z" fill="black"/>
<path d="M120.843 70.6351C118.304 67.2883 122.785 58.3803 123.355 54.2786C125.117 41.4449 110.481 42.4767 110.481 42.4767C98.7463 41.3443 96.13 51.0324 94.9643 55.4864C92.7107 64.2687 88.6956 65.2501 85.4058 67.691C82.1159 70.1319 77.3755 78.1843 82.634 82.588C85.0431 84.6012 114.418 89.5333 119.314 87.948C124.935 86.1613 123.381 73.982 120.843 70.6351Z" fill="black"/>
<path d="M98.668 73.0257L103.745 62.0794C103.745 62.0794 99.7559 54.6561 105.014 55.3607C105.014 55.3607 115.376 56.7699 117.371 49.724C117.371 49.724 124.287 68.9744 111.18 67.389L110.817 75.517L98.668 73.0257Z" fill="#FAFBFD"/>
<path d="M111.335 76.1209L97.9429 73.4032L103.201 62.1046C102.683 61.0981 101 57.4996 102.269 55.7381C102.813 54.9832 103.771 54.7064 105.118 54.8826C105.222 54.9077 115.04 56.1408 116.905 49.5982L117.345 48.0379L117.889 49.573C118.044 50.0511 121.93 61.0226 117.941 65.8289C116.568 67.4645 114.496 68.1691 111.698 67.9426L111.335 76.1209ZM99.3935 72.6483L110.351 74.8627L110.714 66.7851L111.283 66.8606C113.952 67.1877 115.92 66.6089 117.138 65.1494C119.987 61.7271 118.252 54.329 117.345 51.2338C114.366 57.0467 105.066 55.8388 104.963 55.8388C104.03 55.7129 103.409 55.8639 103.098 56.2917C102.217 57.4996 103.642 60.7709 104.212 61.8278L104.341 62.0543L99.3935 72.6483Z" fill="black"/>
<path d="M111.051 89.8101L123.356 98.1394L155.244 107.173L162.264 100.857L130.376 87.797L111.129 72.9754L111.051 89.8101Z" fill="#FF1F30"/>
<path d="M96.3628 118.925C96.5959 119.604 118.511 151.411 125.712 161.854C127.214 164.019 128.173 166.485 128.51 169.076L134.157 211.629H117.345L106.983 169.756L79.0071 132.262C79.0071 132.262 73.1268 124.109 83.4885 113.766L96.3628 118.925Z" fill="black"/>
<path d="M73.9047 111.778C73.9047 111.778 62.5069 127.631 68.1022 139.333L82.0904 166.258L63.9058 211.679H80.1476L101.052 173.782C102.555 171.039 103.073 167.869 102.477 164.824L94.1358 121.416L73.9047 111.778Z" fill="#2F2E40"/>
<path d="M111.206 72.6232C111.206 72.6232 104.626 71.4656 101.544 66.8606C101.544 66.8606 94.1351 65.3759 85.1723 73.5291L68.1274 92.704C65.8997 95.1952 66.5214 99.0201 69.3967 100.756L77.8933 105.89L71.4432 115.402L98.5906 125.191C98.5906 125.191 104.911 104.682 112.734 98.5924C119.702 93.2073 112.449 76.2971 111.206 72.6232Z" fill="#FF1F30"/>
<path d="M251.658 72.0947L257.149 70.3333L274.142 72.1702L285.281 73.3781C286.499 73.5039 287.017 74.9886 286.11 75.7938L277.924 83.2172L265.439 94.5661L259.947 96.3276L251.658 72.0947Z" fill="#FAFBFD"/>
<path d="M259.636 96.9823L251.01 71.768L257.098 69.8052L285.333 72.8501C286.11 72.9256 286.732 73.4289 286.991 74.1335C287.224 74.8381 287.043 75.6181 286.473 76.1214L265.724 94.9943L259.636 96.9823ZM252.331 72.3971L260.31 95.6989L265.206 94.1136L285.773 75.3917C286.033 75.14 286.136 74.7877 286.007 74.4605C285.877 74.1083 285.592 73.8818 285.229 73.8566L257.227 70.837L252.331 72.3971Z" fill="black"/>
<path d="M35.6182 141.824L257.15 70.3081L257.227 70.5094C255.466 71.4908 254.585 73.5543 255.259 75.4919C255.932 77.4295 257.901 78.5871 259.921 78.3354L259.973 78.4864C258.212 79.4678 257.331 81.5312 258.004 83.4688C258.678 85.4065 260.647 86.564 262.667 86.3124L262.719 86.4634C260.957 87.4448 260.077 89.5082 260.75 91.4458C261.424 93.3834 263.392 94.541 265.413 94.2893L265.491 94.4906L43.9075 166.082L35.6182 141.824Z" fill="#FAFBFD"/>
<path d="M43.5967 166.711L34.9707 141.497L35.4629 141.346L257.486 69.679L257.849 70.761L257.486 70.9623C255.906 71.8179 255.181 73.68 255.751 75.366C256.321 77.052 258.056 78.1089 259.844 77.8824L260.258 77.8321L260.569 78.7632L260.206 78.9645C258.626 79.8201 257.901 81.6822 258.471 83.3682C259.041 85.0541 260.776 86.111 262.564 85.8846L262.978 85.8342L263.289 86.7653L262.926 86.9666C261.346 87.8222 260.621 89.6843 261.191 91.3703C261.761 93.0563 263.496 94.1132 265.284 93.8867L265.698 93.8363L266.061 94.9184L265.569 95.0694L43.5967 166.711ZM36.2659 142.151L44.2443 165.453L263.419 94.7171C261.942 94.2893 260.724 93.1821 260.232 91.6974C259.637 89.9862 260.129 88.1241 261.398 86.8659C259.611 86.6143 258.082 85.4065 257.486 83.6953C256.891 81.9842 257.383 80.122 258.652 78.8638C256.865 78.6121 255.336 77.4043 254.741 75.6932C254.223 74.2085 254.533 72.6232 255.44 71.4153L36.2659 142.151Z" fill="black"/>
<path d="M274.168 72.145L285.307 73.3529C286.525 73.4787 287.043 74.9634 286.136 75.7686L277.95 83.192L274.168 72.145Z" fill="black"/>
<path d="M45.591 164.522L36.9132 167.315C33.7788 168.321 30.4113 166.686 29.3751 163.641L25.5413 152.468C24.5051 149.423 26.1889 146.152 29.3233 145.145L38.0011 142.352L45.591 164.522Z" fill="#FAFBFD"/>
<path d="M35.0485 168.12C32.3286 168.12 29.79 166.434 28.8833 163.792L25.0495 152.619C24.5055 151.009 24.6351 149.323 25.4122 147.813C26.1893 146.303 27.5104 145.196 29.1683 144.667L38.3383 141.698L46.2649 164.849L37.0949 167.818C36.4214 168.02 35.722 168.12 35.0485 168.12ZM37.6907 142.981L29.505 145.624C28.1321 146.077 26.9923 147.008 26.3447 148.266C25.6971 149.524 25.5935 150.958 26.0339 152.317L29.8677 163.49C30.8261 166.258 33.9087 167.768 36.7581 166.837L44.9438 164.195L37.6907 142.981Z" fill="black"/>
<path d="M47.7066 137.916L35.6118 141.82L43.9101 166.082L56.0049 162.179L47.7066 137.916Z" fill="black"/>
<path d="M262.36 86.0166L53.0366 153.576L53.3633 154.531L262.687 86.9718L262.36 86.0166Z" fill="black"/>
<path d="M259.64 78.0095L50.3159 145.569L50.6426 146.524L259.966 78.9648L259.64 78.0095Z" fill="black"/>
<path d="M157.937 99.3472L165.786 101.26L169.154 103.701C169.154 103.701 165.372 104.934 162.289 102.468L153.326 103.826L157.937 99.3472Z" fill="#FAFBFD"/>
<path d="M151.824 104.581L157.782 98.7937L165.994 100.782L170.216 103.877L169.284 104.179C169.128 104.229 165.346 105.412 162.108 103.021L151.824 104.581ZM162.419 101.964L162.6 102.115C164.465 103.6 166.641 103.625 167.911 103.449L165.553 101.738L158.093 99.9261L154.803 103.122L162.419 101.964Z" fill="black"/>
<path d="M105.481 107.777L118.174 114.873L120.713 123.505C120.713 123.505 119.443 124.134 118.174 121.97L118.822 125.065C118.822 125.065 116.905 124.436 116.283 122.599V124.461C116.283 124.461 115.325 125.09 114.366 121.693L114.055 123.228C114.055 123.228 113.097 122.926 113.097 120.762L112.449 118.598C112.449 118.598 109.911 117.667 108.952 115.83L102.295 112.734L105.481 107.777Z" fill="#FAFBFD"/>
<path d="M119.495 125.794L118.64 125.518C118.588 125.493 117.63 125.165 116.775 124.335V124.687L116.542 124.838C116.361 124.964 116.05 125.04 115.687 124.889C115.247 124.738 114.832 124.285 114.47 123.53L114.418 123.832L113.874 123.656C113.744 123.605 112.579 123.177 112.579 120.787L112.035 118.925C111.361 118.648 109.496 117.742 108.589 116.157L101.543 112.911L105.3 107.098L118.614 114.521L121.334 123.756L120.946 123.932C120.894 123.958 120.065 124.335 119.055 123.681L119.495 125.794ZM115.739 119.478L116.749 122.423C117.034 123.228 117.578 123.781 118.07 124.109L117.034 119.025L118.614 121.718C119.158 122.674 119.676 122.976 120.039 123.052L117.733 115.201L105.662 108.457L103.072 112.508L109.366 115.427L109.444 115.578C110.299 117.214 112.63 118.094 112.656 118.094L112.889 118.195L113.615 120.661V120.737C113.615 121.29 113.692 121.693 113.77 121.995L114.288 119.478L114.858 121.542C115.195 122.75 115.506 123.354 115.739 123.681V119.478Z" fill="black"/>
<path d="M100.896 115.905L77.272 106.217L77.6605 105.286L100.482 114.622L105.326 106.695L85.3281 93.031L91.6487 86.8911L92.374 87.6208L86.9342 92.9052L106.699 106.418L100.896 115.905Z" fill="black"/>
<path d="M287.277 212.233L296.965 212.258L296.576 221.644L286.992 222.021L287.277 212.233Z" fill="#FAFBFD"/>
<path d="M286.448 222.55L286.784 211.704L297.509 211.729L297.094 222.122L286.448 222.55ZM287.795 212.736L287.536 221.518L296.11 221.166L296.447 212.761L287.795 212.736Z" fill="black"/>
<path d="M293.52 221.719C293.52 221.719 297.846 216.51 293.804 211.905L301.317 198.82C301.653 198.241 302.56 198.493 302.534 199.147L301.835 222.6C301.809 223.33 301.084 223.858 300.358 223.657L293.52 221.719Z" fill="black"/>
<path d="M200.213 203.174L245.83 205.061L287.535 211.603V223.833H200.342L200.213 203.174Z" fill="#FAFBFD"/>
<path d="M288.054 224.336H199.824L199.669 202.645L245.908 204.583L288.054 211.176V224.336ZM200.861 223.33H287.017V212.031L245.778 205.589L200.731 203.702L200.861 223.33Z" fill="black"/>
<path d="M268.6 208.986L272.745 218.398L263.057 218.297L258.498 208.986H268.6Z" fill="#FAFBFD"/>
<path d="M273.522 218.901L262.72 218.775L257.669 208.458H268.937L273.522 218.901ZM263.394 217.794L271.968 217.894L268.264 209.49H259.327L263.394 217.794Z" fill="black"/>
<path d="M261.606 215.328C261.606 215.328 267.097 219.379 271.708 215.328L285.386 222.248C285.981 222.55 285.774 223.431 285.075 223.431H260.906C260.155 223.431 259.585 222.726 259.792 222.021L261.606 215.328Z" fill="black"/>
<path d="M171.382 199.626C171.382 199.626 161.59 218.926 174.179 223.833H207.207L244.483 200.884L259.818 215.152L272.796 210.874L251.607 179.922C248.887 175.368 242.851 173.833 238.188 176.55L201.871 197.713L171.382 199.626Z" fill="#FAFBFD"/>
<path d="M207.362 224.336H174.075L173.972 224.311C171.122 223.204 169.154 221.292 168.092 218.649C165.087 211.025 170.656 199.902 170.889 199.424L171.019 199.173L201.715 197.26L237.929 176.148C240.312 174.764 243.084 174.386 245.752 175.04C248.42 175.72 250.648 177.355 252.047 179.671L273.599 211.151L259.688 215.73L244.431 201.538L207.362 224.336ZM174.283 223.33H207.051L244.56 200.255L259.947 214.573L271.967 210.597L251.14 180.174C249.897 178.085 247.876 176.601 245.493 175.997C243.084 175.393 240.597 175.745 238.447 176.978L202.052 198.216L171.718 200.104C170.889 201.815 166.486 211.679 169.076 218.272C170.009 220.637 171.744 222.323 174.283 223.33Z" fill="black"/>
<path d="M167.315 159.992L159.207 161.628L160.036 131.708L168.998 125.719L163.118 127.355L164.802 121.919L164.517 118.119C164.517 118.119 162.833 118.396 162.833 121.114L161.305 123.429L161.875 120.435L160.942 115.628C160.916 115.502 160.787 115.427 160.657 115.477C160.139 115.678 158.922 116.232 158.922 117.314C158.922 118.673 158.922 119.478 158.922 119.478L158.792 120.963L158.222 118.245L157.73 116.106C157.704 115.93 157.497 115.88 157.342 115.98C156.979 116.257 156.435 116.912 156.254 118.522L155.839 122.724L155.01 119.201C155.01 119.201 153.327 119.755 153.611 121.919L153.197 127.506C153.197 127.506 153.482 129.418 153.767 130.777L147.187 166.258C147.187 166.258 145.659 171.014 153.197 171.568C153.197 171.568 160.891 171.693 167.056 171.165L167.315 159.992Z" fill="#FAFBFD"/>
<path d="M155.346 172.071C154.025 172.071 153.17 172.046 153.17 172.046H153.144C150.243 171.844 148.249 170.989 147.238 169.529C146.176 168.02 146.591 166.384 146.668 166.107L153.222 130.752C152.937 129.393 152.678 127.581 152.678 127.556V127.506L153.093 121.919C152.86 119.906 154.129 118.95 154.854 118.723L155.398 118.547L155.657 119.604L155.761 118.472C155.968 116.735 156.564 115.93 157.056 115.578C157.263 115.427 157.522 115.377 157.781 115.452C158.014 115.528 158.196 115.729 158.273 115.981L158.481 116.886C158.714 115.779 159.957 115.2 160.501 114.974C160.708 114.898 160.916 114.924 161.123 115.024C161.304 115.125 161.434 115.301 161.486 115.502L162.418 120.309C162.729 117.918 164.413 117.616 164.49 117.591L165.06 117.49L165.397 121.944L163.972 126.6L171.977 124.385L160.631 131.96L159.828 160.974L167.936 159.338L167.625 171.568L167.159 171.618C162.962 171.995 158.092 172.071 155.346 172.071ZM153.196 171.039C153.559 171.039 160.657 171.14 166.511 170.662L166.77 160.596L158.662 162.232L159.517 131.431L166.071 127.053L162.34 128.084L164.257 121.844L164.05 118.9C163.713 119.227 163.351 119.856 163.351 121.064V121.215L160.32 125.769L161.33 120.384L160.475 116.056C160.035 116.282 159.413 116.685 159.413 117.264V119.478L158.947 124.436L157.678 118.321L157.315 116.71C157.108 117.037 156.849 117.591 156.745 118.547L156.02 125.82L154.621 119.956C154.284 120.258 153.947 120.837 154.077 121.819V121.869L153.663 127.43C153.714 127.757 153.973 129.418 154.207 130.601L154.232 130.701L147.653 166.409C147.653 166.409 147.238 167.793 148.093 169.001C148.922 170.159 150.632 170.863 153.196 171.039ZM162.315 120.711L162.263 121.038L162.315 120.963C162.315 120.887 162.315 120.787 162.315 120.711Z" fill="black"/>
<path d="M193.763 160.797C193.763 160.521 193.193 149.927 193.193 149.927C193.193 149.927 202.699 153.726 198.244 134.149C198.244 134.149 187.442 128.814 184.1 136.464C180.603 144.491 182.287 160.797 182.287 160.797H193.763Z" fill="#FAFBFD"/>
<path d="M194.282 161.301H181.822L181.77 160.848C181.692 160.168 180.112 144.315 183.635 136.263C184.49 134.325 185.863 132.991 187.754 132.337C192.339 130.701 198.245 133.595 198.504 133.696L198.711 133.797L198.763 134.023C200.68 142.352 200.317 147.637 197.753 149.751C196.354 150.883 194.722 150.782 193.789 150.581C193.919 153.072 194.308 160.521 194.308 160.772V161.301H194.282ZM182.754 160.294H193.22C193.142 158.508 192.805 152.468 192.676 149.952L192.624 149.147L193.375 149.449C193.453 149.474 195.499 150.254 197.053 148.996C198.582 147.737 199.955 144.189 197.779 134.501C196.691 134.023 191.769 131.96 188.065 133.293C186.459 133.847 185.293 135.005 184.568 136.665C181.511 143.736 182.521 157.627 182.754 160.294Z" fill="black"/>
<path d="M214.045 151.965L222.153 150.329L215.703 116.056L205.056 113.892L208.553 112.659L205.471 109.388L203.839 105.789C203.684 105.412 203.968 105.009 204.383 105.059C205.29 105.135 206.611 105.462 207.155 106.67L211.351 109.941L207.155 104.506L206.041 101.511C205.885 101.083 206.274 100.681 206.714 100.781C207.465 100.932 208.476 101.385 209.097 102.618L214.978 108.607L211.066 102.618L210.211 100.152C210.082 99.7498 210.444 99.3471 210.885 99.4478C211.532 99.6239 212.413 100.077 213.035 101.26L216.402 105.336L215.004 102.342L214.589 100.706C214.537 100.48 214.77 100.303 214.978 100.429C215.444 100.681 216.092 101.159 216.428 101.813L219.511 106.167L223.137 112.684L223.707 115.679L232.489 153.676C232.981 155.84 231.789 158.029 229.665 158.835L216.273 163.943L214.045 151.965Z" fill="#FAFBFD"/>
<path d="M215.911 164.622L213.476 151.562L221.584 149.927L215.289 116.484L203.218 114.018L207.699 112.458L205.083 109.69L203.425 106.016C203.27 105.689 203.321 105.286 203.529 105.009C203.762 104.707 204.099 104.556 204.487 104.581C205.99 104.707 207.103 105.361 207.621 106.393L208.528 107.098L206.741 104.757L205.601 101.687C205.471 101.31 205.549 100.932 205.808 100.631C206.067 100.329 206.482 100.203 206.87 100.278C207.699 100.454 208.839 100.933 209.59 102.317L211.766 104.531L210.652 102.82L209.771 100.278C209.642 99.9008 209.746 99.4982 210.005 99.2214C210.264 98.9446 210.678 98.8188 211.067 98.9194C211.792 99.0956 212.802 99.5988 213.502 100.958L214.434 102.09L214.097 100.807C214.02 100.505 214.123 100.203 214.382 100.027C214.641 99.8505 214.978 99.8253 215.237 99.9763C215.755 100.278 216.455 100.782 216.869 101.536L219.952 105.915L223.63 112.508L224.2 115.578L232.982 153.55C233.551 155.966 232.23 158.382 229.847 159.288L215.911 164.622ZM214.667 152.368L216.714 163.238L229.536 158.331C231.427 157.602 232.489 155.689 232.023 153.752L223.242 115.754L222.698 112.81L219.123 106.368L216.014 101.989C215.859 101.662 215.6 101.411 215.315 101.184L215.548 102.14L218.657 108.758L212.647 101.436C212.103 100.404 211.378 100.001 210.834 99.8756H210.808C210.782 99.9008 210.782 99.926 210.808 99.926L211.637 102.342L215.522 108.28L214.719 108.909L208.787 102.87L208.761 102.795C208.217 101.713 207.337 101.36 206.715 101.209C206.715 101.209 206.663 101.209 206.637 101.234C206.611 101.26 206.611 101.285 206.637 101.285L207.725 104.229L214.331 112.785L206.844 106.972L206.793 106.846C206.378 105.89 205.29 105.588 204.461 105.537L203.969 105.764L204.435 105.563L206.015 109.086L209.564 112.835L207.052 113.716L216.248 115.603L222.775 150.732L214.667 152.368Z" fill="black"/>
<path d="M190.965 148.039C190.965 148.039 184.515 153.198 180.059 148.039C180.059 148.039 172.78 134.979 184.825 131.456C184.825 131.456 190.706 129.695 194.617 127.556C196.223 126.7 198.088 126.424 199.876 126.851C202.596 127.531 205.601 129.242 203.321 133.62C199.409 141.094 192.959 141.245 192.959 141.245C192.959 141.245 189.333 139.609 189.333 142.05C189.333 144.491 191.561 145.573 191.561 145.573L190.965 148.039Z" fill="black"/>
<path d="M194.048 155.916L205.808 153.198L218.397 150.203L220.91 162.987L208.735 168.02L202.855 199.55C202.855 199.55 188.478 200.707 184.567 203.174C170.941 211.78 165.916 206.873 165.916 206.873L170.397 173.983H163.118L163.403 159.841L181.588 157.124C181.588 157.149 185.655 162.987 194.048 155.916Z" fill="#FF1F30"/>
<path d="M366.801 224.211H0V225.217H366.801V224.211Z" fill="black"/>
</svg>
